<?xml version="1.0" encoding="utf-8"?>
<svg viewBox="0 0 500 500" xmlns="http://www.w3.org/2000/svg">
  <path d="M 447.005 111.133 L 269.778 11.533 C 256.338 4.008 239.647 4.008 226.207 11.533 L 48.98 111.133 C 35.416 118.743 26.985 133.014 26.985 148.306 L 26.985 347.518 C 26.985 362.81 35.416 377.081 48.98 384.689 L 226.207 484.291 C 232.944 488.08 240.467 489.962 247.992 489.962 C 255.518 489.962 263.043 488.08 269.778 484.291 L 447.005 384.689 C 460.571 377.081 469.001 362.81 469.001 347.518 L 469.001 148.306 C 469.001 133.014 460.571 118.743 447.005 111.133 Z M 247.992 374.197 C 178.355 374.197 121.704 317.555 121.704 247.906 C 121.704 178.268 178.355 121.617 247.992 121.617 C 287.784 121.617 324.546 140.075 348.425 171.533 L 302.298 198.212 C 288.448 183.036 268.758 174.236 247.992 174.236 C 207.38 174.236 174.323 207.293 174.323 247.906 C 174.323 288.53 207.38 321.575 247.992 321.575 C 268.758 321.575 288.448 312.788 302.298 297.612 L 348.425 324.291 C 324.546 355.747 287.784 374.197 247.992 374.197 Z M 374.284 258.431 L 353.235 258.431 L 353.235 279.478 L 332.185 279.478 L 332.185 258.431 L 311.138 258.431 L 311.138 237.383 L 332.185 237.383 L 332.185 216.333 L 353.235 216.333 L 353.235 237.383 L 374.284 237.383 Z M 447.953 258.431 L 426.904 258.431 L 426.904 279.478 L 405.856 279.478 L 405.856 258.431 L 384.808 258.431 L 384.808 237.383 L 405.856 237.383 L 405.856 216.333 L 426.904 216.333 L 426.904 237.383 L 447.953 237.383 Z" style=""/>
  <path stroke-width="0" d="M 400.391 182.085 C 402.996 181.76 406.25 182.212 408.685 183.27 C 411.076 184.309 413.275 185.654 414.905 188.306 C 417.068 191.825 416.646 200.512 419.052 204.005 C 420.969 206.788 424.487 206.248 426.754 209.04 C 429.746 212.727 430.708 223.989 434.159 225.924 C 436.897 227.46 440.926 223.018 444.23 223.555 C 447.746 224.126 452.377 226.827 454.597 229.775 C 456.783 232.678 457.677 237.124 457.559 241.031 C 457.434 245.199 455.608 249.804 453.412 254.064 C 451.02 258.705 445.615 262.836 443.341 267.69 C 441.162 272.34 441.847 278.302 439.787 282.5 C 437.875 286.395 434.736 289.71 431.789 292.275 C 429.067 294.644 426.342 296.591 422.903 297.607 C 419.132 298.72 414.376 299.555 409.87 298.199 C 404.474 296.575 398.388 292.484 392.986 286.647 C 389.574 282.96 385.479 277.178 381.85 271.237 C 380.363 272.922 378.817 274.447 377.287 275.687 C 370.702 281.025 361.338 283.856 352.405 285.758 C 343.037 287.753 330.285 288.179 322.192 286.943 C 315.839 285.973 311.255 283.73 306.789 281.019 C 302.527 278.431 298.693 275.396 295.829 271.244 C 292.735 266.758 290.422 259.543 289.313 254.656 C 288.409 250.675 288.535 248.073 288.72 243.993 C 288.946 239.04 289.207 231.479 291.09 226.813 C 292.73 222.751 295.283 219.537 298.495 217.038 C 301.837 214.439 306.657 212.689 310.936 211.706 C 315.152 210.737 320.95 211 323.969 211.114 C 325.886 211.186 326.259 211.969 328.116 211.706 C 331.065 211.288 336.296 207.555 340.557 206.967 C 344.789 206.383 349.752 206.674 353.59 208.152 C 357.329 209.592 361.898 214.041 363.365 215.557 C 364.035 216.249 363.531 216.288 364.254 217.038 C 366.053 218.905 374.55 223.478 377.583 227.405 C 377.819 227.711 378.034 228.032 378.231 228.364 C 380.157 225.64 382.189 223.242 383.803 221.777 C 386.479 219.349 390.641 221.003 391.801 218.223 C 393.517 214.111 386.225 201.259 387.062 195.415 C 387.705 190.919 390.792 187.264 393.282 185.047 C 395.361 183.196 397.872 182.4 400.391 182.085 Z" style="stroke-width: 2px; stroke: rgb(0, 0, 0);"/>
</svg>